<?xml version="1.0" encoding="utf-8"?>
<!-- Generator: Adobe Illustrator 28.1.0, SVG Export Plug-In . SVG Version: 6.00 Build 0)  -->
<svg version="1.1" id="Layer_1" xmlns="http://www.w3.org/2000/svg" xmlns:xlink="http://www.w3.org/1999/xlink" x="0px" y="0px"
	 viewBox="0 0 100 100" style="enable-background:new 0 0 100 100;" xml:space="preserve">
<style type="text/css">
	.st0{fill:#606060;}
</style>
<g>
	<path class="st0" d="M33.1,16.9c4.8,0,9.3,1,13.4,2.8C37.4,24.8,31.1,36.5,31.1,50s6.3,25.2,15.4,30.3c-4.1,1.8-8.6,2.8-13.4,2.8
		C14.8,83.1,0,68.3,0,50S14.8,16.9,33.1,16.9z"/>
	<path class="st0" d="M59.3,29.6c-3.4-4.3-7.7-7.7-12.8-10c3.2-1.8,6.7-2.8,10.4-2.8c3.5,0,6.8,0.9,9.9,2.5
		C63.8,21.6,61.2,25.2,59.3,29.6L59.3,29.6z"/>
	<path class="st0" d="M59.3,70.4c1.9,4.5,4.5,8,7.5,10.3c-3,1.6-6.4,2.5-9.9,2.5c-3.7,0-7.2-1-10.4-2.8
		C51.5,78.1,55.9,74.7,59.3,70.4L59.3,70.4z"/>
	<path class="st0" d="M79.3,66.2c0.9,5,2.3,9.2,3.9,12.1c-2.8,3-6,4.7-9.5,4.7c-2.5,0-4.9-0.9-7-2.5C72.1,77.8,76.5,72.7,79.3,66.2
		L79.3,66.2z"/>
	<path class="st0" d="M66.7,19.4c2.2-1.6,4.5-2.5,7-2.5c3.5,0,6.7,1.7,9.5,4.7c-1.6,3-3,7.1-3.9,12.1C76.5,27.3,72.1,22.2,66.7,19.4
		L66.7,19.4z"/>
	<path class="st0" d="M59.3,70.4c-2.4-5.6-3.9-12.7-3.9-20.4s1.5-14.7,3.9-20.4c4.4,5.6,7,12.7,7,20.4S63.6,64.7,59.3,70.4z"/>
	<path class="st0" d="M83.3,21.6c1.7-3,3.6-4.7,5.7-4.7c6.1,0,11,14.8,11,33.1s-4.9,33.1-11,33.1c-2.1,0-4-1.7-5.7-4.7
		c5.3-5.8,8.9-16.3,8.9-28.4C92.2,37.9,88.6,27.4,83.3,21.6z"/>
	<path class="st0" d="M83.3,21.6c1.7-3,3.6-4.7,5.7-4.7c6.1,0,11,14.8,11,33.1s-4.9,33.1-11,33.1c-2.1,0-4-1.7-5.7-4.7
		c5.3-5.8,8.9-16.3,8.9-28.4C92.2,37.9,88.6,27.4,83.3,21.6z"/>
	<path class="st0" d="M79.3,66.3C78.4,61.5,77.9,56,77.9,50c0-5.9,0.5-11.5,1.4-16.3c2.1,4.8,3.3,10.3,3.3,16.3
		C82.6,55.9,81.4,61.5,79.3,66.3z"/>
</g>
</svg>
