<?xml version="1.0" encoding="utf-8"?>
<!-- Generator: Adobe Illustrator 28.1.0, SVG Export Plug-In . SVG Version: 6.00 Build 0)  -->
<svg version="1.1" id="Layer_1" xmlns="http://www.w3.org/2000/svg" xmlns:xlink="http://www.w3.org/1999/xlink" x="0px" y="0px"
	 viewBox="0 0 40 40" style="enable-background:new 0 0 40 40;" xml:space="preserve">
<style type="text/css">
	.st0{fill:#B2B2B2;fill-opacity:0.1;}
</style>
<path class="st0" d="M15.9,12.1c1.2,0,2.2,0.2,3.2,0.7c-2.2,1.2-3.7,4-3.7,7.3s1.5,6,3.7,7.3c-1,0.4-2.1,0.7-3.2,0.7
	C11.6,27.9,8,24.4,8,20S11.6,12.1,15.9,12.1z"/>
<path class="st0" d="M22.2,15.1c-0.8-1-1.8-1.8-3.1-2.4c0.8-0.4,1.6-0.7,2.5-0.7c0.8,0,1.6,0.2,2.4,0.6C23.3,13.2,22.7,14,22.2,15.1
	L22.2,15.1z"/>
<path class="st0" d="M22.2,24.9c0.5,1.1,1.1,1.9,1.8,2.5c-0.7,0.4-1.5,0.6-2.4,0.6c-0.9,0-1.7-0.2-2.5-0.7
	C20.4,26.7,21.4,25.9,22.2,24.9L22.2,24.9z"/>
<path class="st0" d="M27,23.9c0.2,1.2,0.6,2.2,0.9,2.9c-0.7,0.7-1.4,1.1-2.3,1.1c-0.6,0-1.2-0.2-1.7-0.6
	C25.3,26.7,26.4,25.4,27,23.9L27,23.9z"/>
<path class="st0" d="M24,12.7c0.5-0.4,1.1-0.6,1.7-0.6c0.8,0,1.6,0.4,2.3,1.1c-0.4,0.7-0.7,1.7-0.9,2.9C26.4,14.6,25.3,13.3,24,12.7
	L24,12.7z"/>
<path class="st0" d="M22.2,24.9c-0.6-1.3-0.9-3-0.9-4.9c0-1.8,0.4-3.5,0.9-4.9c1.1,1.3,1.7,3,1.7,4.9C23.9,21.8,23.3,23.5,22.2,24.9
	z"/>
<path class="st0" d="M28,13.2c0.4-0.7,0.9-1.1,1.4-1.1c1.5,0,2.6,3.6,2.6,7.9s-1.2,7.9-2.6,7.9c-0.5,0-1-0.4-1.4-1.1
	c1.3-1.4,2.1-3.9,2.1-6.8C30.1,17.1,29.3,14.6,28,13.2z"/>
<path class="st0" d="M28,13.2c0.4-0.7,0.9-1.1,1.4-1.1c1.5,0,2.6,3.6,2.6,7.9s-1.2,7.9-2.6,7.9c-0.5,0-1-0.4-1.4-1.1
	c1.3-1.4,2.1-3.9,2.1-6.8C30.1,17.1,29.3,14.6,28,13.2z"/>
<path class="st0" d="M27,23.9c-0.2-1.2-0.3-2.5-0.3-3.9c0-1.4,0.1-2.8,0.3-3.9c0.5,1.2,0.8,2.5,0.8,3.9C27.8,21.4,27.5,22.8,27,23.9
	z"/>
</svg>
